<?xml version="1.0" encoding="UTF-8" standalone="no"?>
<!DOCTYPE svg PUBLIC "-//W3C//DTD SVG 1.1//EN" "http://www.w3.org/Graphics/SVG/1.1/DTD/svg11.dtd">
<svg width="100%" height="100%" viewBox="0 0 1630 762" version="1.1" xmlns="http://www.w3.org/2000/svg" xmlns:xlink="http://www.w3.org/1999/xlink" xml:space="preserve" xmlns:serif="http://www.serif.com/" style="fill-rule:evenodd;clip-rule:evenodd;stroke-linejoin:round;stroke-miterlimit:1.41421;">
    <g transform="matrix(5.55556,0,0,5.55556,-1972,-48.7128)">
        <g transform="matrix(1,0,0,1,1.58336,0)">
            <g transform="matrix(0.922828,0.385212,-0.385212,0.922828,-4600.97,-7815.23)">
                <path d="M7625,5368L7700,5335L7806,5334L7833.4,5356.87L7709,5360L7619,5391L7625,5368Z" style="fill:rgb(255,112,44);"/>
            </g>
        </g>
        <g transform="matrix(1,0,0,1,1.58336,0)">
            <g transform="matrix(0.922828,0.385212,-0.385212,0.922828,-4602.78,-7939.68)">
                <path d="M7654.53,5442.87L7652,5419L7718,5395L7825,5394L7940,5394L7942,5418L7808,5414L7723,5416L7654.53,5442.87Z" style="fill:rgb(255,112,44);"/>
            </g>
        </g>
    </g>
</svg>
